<svg xmlns="http://www.w3.org/2000/svg" viewBox="0 0 64 64" role="img" aria-label="betTube Studio">
  <defs>
    <linearGradient id="shell" x1="13" y1="9" x2="52" y2="56" gradientUnits="userSpaceOnUse">
      <stop offset="0" stop-color="#6b9a92"/>
      <stop offset="1" stop-color="#426f69"/>
    </linearGradient>
    <linearGradient id="face" x1="20" y1="18" x2="45" y2="48" gradientUnits="userSpaceOnUse">
      <stop offset="0" stop-color="#7eaaa2"/>
      <stop offset="1" stop-color="#4f7d76"/>
    </linearGradient>
  </defs>
  <path
    fill="#0a0a0c"
    d="M32 3.5 43.1 7l8.7-2.1 5.3 10.4 6.5 5.8-3.7 11 3.7 11-6.5 5.8-5.3 10.4-8.7-2.1L32 60.5 20.9 57l-8.7 2.1-5.3-10.4-6.5-5.8 3.7-11-3.7-11 6.5-5.8L12.2 4.9 20.9 7 32 3.5Z"
    opacity=".94"
  />
  <path
    fill="url(#shell)"
    d="M32 6.5 42.4 9.8l8.1-1.9 4.9 9.7 6 5.4-3.4 10.2 3.4 10.2-6 5.4-4.9 9.7-8.1-1.9L32 57.5l-10.4-3.3-8.1 1.9-4.9-9.7-6-5.4 3.4-10.2L2.6 20.6l6-5.4 4.9-9.7 8.1 1.9L32 6.5Z"
  />
  <circle cx="32" cy="32" r="19.5" fill="#0f1515" opacity=".32"/>
  <circle cx="32" cy="32" r="16.2" fill="url(#face)"/>
  <path fill="#f0ece4" d="M27 22.5v19l16.5-9.5L27 22.5Z"/>
  <path fill="#f0ece4" d="M20.6 13.1 25 15.4 22.5 19.7 18.1 17.2l2.5-4.1Zm22.8 0 2.5 4.1-4.4 2.5-2.5-4.3 4.4-2.3ZM18.1 46.8l4.4-2.5 2.5 4.3-4.4 2.3-2.5-4.1Zm23.4-2.5 4.4 2.5-2.5 4.1-4.4-2.3 2.5-4.3Z" opacity=".24"/>
</svg>
